<mxfile host="app.diagrams.net" agent="Mozilla/5.0 (Macintosh; Intel Mac OS X 10_15_7) AppleWebKit/537.36 (KHTML, like Gecko) Chrome/131.0.0.0 Safari/537.36" version="25.0.1">
  <diagram name="Page-1" id="CEM5KsNdM5F3eadqXrMP">
    <mxGraphModel dx="1406" dy="863" grid="1" gridSize="10" guides="1" tooltips="1" connect="1" arrows="1" fold="1" page="1" pageScale="1" pageWidth="850" pageHeight="1100" math="0" shadow="0">
      <root>
        <mxCell id="0" />
        <mxCell id="1" parent="0" />
        <mxCell id="CTvArlNb1zvTg37I3FEG-1" value="" style="group" vertex="1" connectable="0" parent="1">
          <mxGeometry x="375" y="10" width="100" height="110" as="geometry" />
        </mxCell>
        <mxCell id="CTvArlNb1zvTg37I3FEG-2" value="" style="shape=note;whiteSpace=wrap;html=1;backgroundOutline=1;darkOpacity=0.05;rounded=1;size=20;strokeWidth=2;" vertex="1" parent="CTvArlNb1zvTg37I3FEG-1">
          <mxGeometry x="5" width="80" height="100" as="geometry" />
        </mxCell>
        <mxCell id="CTvArlNb1zvTg37I3FEG-3" value="&lt;font data-font-src=&quot;https://fonts.googleapis.com/css?family=Maven+Pro&quot; face=&quot;Maven Pro&quot; color=&quot;#ffffff&quot;&gt;&lt;b&gt;&lt;font style=&quot;font-size: 20px;&quot;&gt;Fastq&lt;/font&gt;&lt;/b&gt;&lt;/font&gt;" style="rounded=1;whiteSpace=wrap;html=1;strokeWidth=2;fillColor=#000000;" vertex="1" parent="CTvArlNb1zvTg37I3FEG-1">
          <mxGeometry y="40" width="90" height="40" as="geometry" />
        </mxCell>
        <mxCell id="CTvArlNb1zvTg37I3FEG-4" value="" style="shape=note;whiteSpace=wrap;html=1;backgroundOutline=1;darkOpacity=0.05;rounded=1;size=20;strokeWidth=2;" vertex="1" parent="CTvArlNb1zvTg37I3FEG-1">
          <mxGeometry x="10" y="5" width="80" height="100" as="geometry" />
        </mxCell>
        <mxCell id="CTvArlNb1zvTg37I3FEG-5" value="&lt;font data-font-src=&quot;https://fonts.googleapis.com/css?family=Maven+Pro&quot; face=&quot;Maven Pro&quot; color=&quot;#ffffff&quot;&gt;&lt;b&gt;&lt;font style=&quot;font-size: 20px;&quot;&gt;Fastq&lt;/font&gt;&lt;/b&gt;&lt;/font&gt;" style="rounded=1;whiteSpace=wrap;html=1;strokeWidth=2;fillColor=#000000;" vertex="1" parent="CTvArlNb1zvTg37I3FEG-1">
          <mxGeometry x="5" y="45" width="90" height="40" as="geometry" />
        </mxCell>
        <mxCell id="CTvArlNb1zvTg37I3FEG-6" value="" style="shape=note;whiteSpace=wrap;html=1;backgroundOutline=1;darkOpacity=0.05;rounded=1;size=20;strokeWidth=2;" vertex="1" parent="CTvArlNb1zvTg37I3FEG-1">
          <mxGeometry x="15" y="10" width="80" height="100" as="geometry" />
        </mxCell>
        <mxCell id="CTvArlNb1zvTg37I3FEG-7" value="&lt;font data-font-src=&quot;https://fonts.googleapis.com/css?family=Maven+Pro&quot; face=&quot;Maven Pro&quot; color=&quot;#ffffff&quot;&gt;&lt;b&gt;&lt;font style=&quot;font-size: 20px;&quot;&gt;IDAT&lt;/font&gt;&lt;/b&gt;&lt;/font&gt;" style="rounded=1;whiteSpace=wrap;html=1;strokeWidth=2;fillColor=#000000;" vertex="1" parent="CTvArlNb1zvTg37I3FEG-1">
          <mxGeometry x="10" y="50" width="90" height="40" as="geometry" />
        </mxCell>
        <mxCell id="CTvArlNb1zvTg37I3FEG-10" value="" style="group" vertex="1" connectable="0" parent="1">
          <mxGeometry x="375" y="170" width="100" height="110" as="geometry" />
        </mxCell>
        <mxCell id="CTvArlNb1zvTg37I3FEG-11" value="" style="shape=note;whiteSpace=wrap;html=1;backgroundOutline=1;darkOpacity=0.05;rounded=1;size=20;strokeWidth=2;" vertex="1" parent="CTvArlNb1zvTg37I3FEG-10">
          <mxGeometry x="5" width="80" height="100" as="geometry" />
        </mxCell>
        <mxCell id="CTvArlNb1zvTg37I3FEG-12" value="&lt;font data-font-src=&quot;https://fonts.googleapis.com/css?family=Maven+Pro&quot; face=&quot;Maven Pro&quot; color=&quot;#ffffff&quot;&gt;&lt;b&gt;&lt;font style=&quot;font-size: 20px;&quot;&gt;Fastq&lt;/font&gt;&lt;/b&gt;&lt;/font&gt;" style="rounded=1;whiteSpace=wrap;html=1;strokeWidth=2;fillColor=#000000;" vertex="1" parent="CTvArlNb1zvTg37I3FEG-10">
          <mxGeometry y="40" width="90" height="40" as="geometry" />
        </mxCell>
        <mxCell id="CTvArlNb1zvTg37I3FEG-13" value="" style="shape=note;whiteSpace=wrap;html=1;backgroundOutline=1;darkOpacity=0.05;rounded=1;size=20;strokeWidth=2;" vertex="1" parent="CTvArlNb1zvTg37I3FEG-10">
          <mxGeometry x="10" y="5" width="80" height="100" as="geometry" />
        </mxCell>
        <mxCell id="CTvArlNb1zvTg37I3FEG-14" value="&lt;font data-font-src=&quot;https://fonts.googleapis.com/css?family=Maven+Pro&quot; face=&quot;Maven Pro&quot; color=&quot;#ffffff&quot;&gt;&lt;b&gt;&lt;font style=&quot;font-size: 20px;&quot;&gt;Fastq&lt;/font&gt;&lt;/b&gt;&lt;/font&gt;" style="rounded=1;whiteSpace=wrap;html=1;strokeWidth=2;fillColor=#000000;" vertex="1" parent="CTvArlNb1zvTg37I3FEG-10">
          <mxGeometry x="5" y="45" width="90" height="40" as="geometry" />
        </mxCell>
        <mxCell id="CTvArlNb1zvTg37I3FEG-15" value="" style="shape=note;whiteSpace=wrap;html=1;backgroundOutline=1;darkOpacity=0.05;rounded=1;size=20;strokeWidth=2;" vertex="1" parent="CTvArlNb1zvTg37I3FEG-10">
          <mxGeometry x="15" y="10" width="80" height="100" as="geometry" />
        </mxCell>
        <mxCell id="CTvArlNb1zvTg37I3FEG-16" value="&lt;font face=&quot;Maven Pro&quot; color=&quot;#ffffff&quot;&gt;&lt;span style=&quot;font-size: 20px;&quot;&gt;&lt;b&gt;GTF&lt;/b&gt;&lt;/span&gt;&lt;/font&gt;" style="rounded=1;whiteSpace=wrap;html=1;strokeWidth=2;fillColor=#000000;" vertex="1" parent="CTvArlNb1zvTg37I3FEG-10">
          <mxGeometry x="10" y="50" width="90" height="40" as="geometry" />
        </mxCell>
        <mxCell id="CTvArlNb1zvTg37I3FEG-26" value="" style="endArrow=none;html=1;rounded=1;strokeWidth=3;exitX=0.5;exitY=1;exitDx=0;exitDy=0;exitPerimeter=0;" edge="1" parent="1" source="CTvArlNb1zvTg37I3FEG-6">
          <mxGeometry width="50" height="50" relative="1" as="geometry">
            <mxPoint x="400" y="230" as="sourcePoint" />
            <mxPoint x="430" y="170" as="targetPoint" />
          </mxGeometry>
        </mxCell>
        <mxCell id="CTvArlNb1zvTg37I3FEG-27" value="" style="group" vertex="1" connectable="0" parent="1">
          <mxGeometry x="375" y="330" width="100" height="110" as="geometry" />
        </mxCell>
        <mxCell id="CTvArlNb1zvTg37I3FEG-28" value="" style="shape=note;whiteSpace=wrap;html=1;backgroundOutline=1;darkOpacity=0.05;rounded=1;size=20;strokeWidth=2;" vertex="1" parent="CTvArlNb1zvTg37I3FEG-27">
          <mxGeometry x="5" width="80" height="100" as="geometry" />
        </mxCell>
        <mxCell id="CTvArlNb1zvTg37I3FEG-29" value="&lt;font data-font-src=&quot;https://fonts.googleapis.com/css?family=Maven+Pro&quot; face=&quot;Maven Pro&quot; color=&quot;#ffffff&quot;&gt;&lt;b&gt;&lt;font style=&quot;font-size: 20px;&quot;&gt;Fastq&lt;/font&gt;&lt;/b&gt;&lt;/font&gt;" style="rounded=1;whiteSpace=wrap;html=1;strokeWidth=2;fillColor=#000000;" vertex="1" parent="CTvArlNb1zvTg37I3FEG-27">
          <mxGeometry y="40" width="90" height="40" as="geometry" />
        </mxCell>
        <mxCell id="CTvArlNb1zvTg37I3FEG-30" value="" style="shape=note;whiteSpace=wrap;html=1;backgroundOutline=1;darkOpacity=0.05;rounded=1;size=20;strokeWidth=2;" vertex="1" parent="CTvArlNb1zvTg37I3FEG-27">
          <mxGeometry x="10" y="5" width="80" height="100" as="geometry" />
        </mxCell>
        <mxCell id="CTvArlNb1zvTg37I3FEG-31" value="&lt;font data-font-src=&quot;https://fonts.googleapis.com/css?family=Maven+Pro&quot; face=&quot;Maven Pro&quot; color=&quot;#ffffff&quot;&gt;&lt;b&gt;&lt;font style=&quot;font-size: 20px;&quot;&gt;Fastq&lt;/font&gt;&lt;/b&gt;&lt;/font&gt;" style="rounded=1;whiteSpace=wrap;html=1;strokeWidth=2;fillColor=#000000;" vertex="1" parent="CTvArlNb1zvTg37I3FEG-27">
          <mxGeometry x="5" y="45" width="90" height="40" as="geometry" />
        </mxCell>
        <mxCell id="CTvArlNb1zvTg37I3FEG-32" value="" style="shape=note;whiteSpace=wrap;html=1;backgroundOutline=1;darkOpacity=0.05;rounded=1;size=20;strokeWidth=2;" vertex="1" parent="CTvArlNb1zvTg37I3FEG-27">
          <mxGeometry x="15" y="10" width="80" height="100" as="geometry" />
        </mxCell>
        <mxCell id="CTvArlNb1zvTg37I3FEG-33" value="&lt;font face=&quot;Maven Pro&quot; color=&quot;#ffffff&quot;&gt;&lt;span style=&quot;font-size: 20px;&quot;&gt;&lt;b&gt;VCF&lt;/b&gt;&lt;/span&gt;&lt;/font&gt;" style="rounded=1;whiteSpace=wrap;html=1;strokeWidth=2;fillColor=#000000;" vertex="1" parent="CTvArlNb1zvTg37I3FEG-27">
          <mxGeometry x="10" y="50" width="90" height="40" as="geometry" />
        </mxCell>
        <mxCell id="CTvArlNb1zvTg37I3FEG-34" value="" style="endArrow=none;html=1;rounded=1;strokeWidth=3;exitX=0.5;exitY=1;exitDx=0;exitDy=0;exitPerimeter=0;" edge="1" parent="1">
          <mxGeometry width="50" height="50" relative="1" as="geometry">
            <mxPoint x="430" y="280" as="sourcePoint" />
            <mxPoint x="430" y="330" as="targetPoint" />
          </mxGeometry>
        </mxCell>
        <mxCell id="CTvArlNb1zvTg37I3FEG-35" value="" style="group" vertex="1" connectable="0" parent="1">
          <mxGeometry x="375" y="490" width="100" height="110" as="geometry" />
        </mxCell>
        <mxCell id="CTvArlNb1zvTg37I3FEG-36" value="" style="shape=note;whiteSpace=wrap;html=1;backgroundOutline=1;darkOpacity=0.05;rounded=1;size=20;strokeWidth=2;" vertex="1" parent="CTvArlNb1zvTg37I3FEG-35">
          <mxGeometry x="5" width="80" height="100" as="geometry" />
        </mxCell>
        <mxCell id="CTvArlNb1zvTg37I3FEG-37" value="&lt;font data-font-src=&quot;https://fonts.googleapis.com/css?family=Maven+Pro&quot; face=&quot;Maven Pro&quot; color=&quot;#ffffff&quot;&gt;&lt;b&gt;&lt;font style=&quot;font-size: 20px;&quot;&gt;Fastq&lt;/font&gt;&lt;/b&gt;&lt;/font&gt;" style="rounded=1;whiteSpace=wrap;html=1;strokeWidth=2;fillColor=#000000;" vertex="1" parent="CTvArlNb1zvTg37I3FEG-35">
          <mxGeometry y="40" width="90" height="40" as="geometry" />
        </mxCell>
        <mxCell id="CTvArlNb1zvTg37I3FEG-38" value="" style="shape=note;whiteSpace=wrap;html=1;backgroundOutline=1;darkOpacity=0.05;rounded=1;size=20;strokeWidth=2;" vertex="1" parent="CTvArlNb1zvTg37I3FEG-35">
          <mxGeometry x="10" y="5" width="80" height="100" as="geometry" />
        </mxCell>
        <mxCell id="CTvArlNb1zvTg37I3FEG-39" value="&lt;font data-font-src=&quot;https://fonts.googleapis.com/css?family=Maven+Pro&quot; face=&quot;Maven Pro&quot; color=&quot;#ffffff&quot;&gt;&lt;b&gt;&lt;font style=&quot;font-size: 20px;&quot;&gt;Fastq&lt;/font&gt;&lt;/b&gt;&lt;/font&gt;" style="rounded=1;whiteSpace=wrap;html=1;strokeWidth=2;fillColor=#000000;" vertex="1" parent="CTvArlNb1zvTg37I3FEG-35">
          <mxGeometry x="5" y="45" width="90" height="40" as="geometry" />
        </mxCell>
        <mxCell id="CTvArlNb1zvTg37I3FEG-40" value="" style="shape=note;whiteSpace=wrap;html=1;backgroundOutline=1;darkOpacity=0.05;rounded=1;size=20;strokeWidth=2;" vertex="1" parent="CTvArlNb1zvTg37I3FEG-35">
          <mxGeometry x="15" y="10" width="80" height="100" as="geometry" />
        </mxCell>
        <mxCell id="CTvArlNb1zvTg37I3FEG-41" value="&lt;font face=&quot;Maven Pro&quot; color=&quot;#ffffff&quot;&gt;&lt;span style=&quot;font-size: 20px;&quot;&gt;&lt;b&gt;VCF&lt;/b&gt;&lt;/span&gt;&lt;/font&gt;" style="rounded=1;whiteSpace=wrap;html=1;strokeWidth=2;fillColor=#000000;" vertex="1" parent="CTvArlNb1zvTg37I3FEG-35">
          <mxGeometry x="10" y="50" width="90" height="40" as="geometry" />
        </mxCell>
        <mxCell id="CTvArlNb1zvTg37I3FEG-42" value="" style="endArrow=none;html=1;rounded=1;strokeWidth=3;exitX=0.5;exitY=1;exitDx=0;exitDy=0;exitPerimeter=0;" edge="1" parent="1">
          <mxGeometry width="50" height="50" relative="1" as="geometry">
            <mxPoint x="430" y="440" as="sourcePoint" />
            <mxPoint x="430" y="490" as="targetPoint" />
          </mxGeometry>
        </mxCell>
        <mxCell id="CTvArlNb1zvTg37I3FEG-43" value="" style="endArrow=none;html=1;rounded=1;strokeWidth=3;" edge="1" parent="1">
          <mxGeometry width="50" height="50" relative="1" as="geometry">
            <mxPoint x="475" y="560" as="sourcePoint" />
            <mxPoint x="545" y="560" as="targetPoint" />
          </mxGeometry>
        </mxCell>
        <mxCell id="CTvArlNb1zvTg37I3FEG-44" value="" style="group" vertex="1" connectable="0" parent="1">
          <mxGeometry x="545" y="495" width="100" height="110" as="geometry" />
        </mxCell>
        <mxCell id="CTvArlNb1zvTg37I3FEG-45" value="" style="shape=note;whiteSpace=wrap;html=1;backgroundOutline=1;darkOpacity=0.05;rounded=1;size=20;strokeWidth=2;" vertex="1" parent="CTvArlNb1zvTg37I3FEG-44">
          <mxGeometry x="5" width="80" height="100" as="geometry" />
        </mxCell>
        <mxCell id="CTvArlNb1zvTg37I3FEG-46" value="&lt;font data-font-src=&quot;https://fonts.googleapis.com/css?family=Maven+Pro&quot; face=&quot;Maven Pro&quot; color=&quot;#ffffff&quot;&gt;&lt;b&gt;&lt;font style=&quot;font-size: 20px;&quot;&gt;Fastq&lt;/font&gt;&lt;/b&gt;&lt;/font&gt;" style="rounded=1;whiteSpace=wrap;html=1;strokeWidth=2;fillColor=#000000;" vertex="1" parent="CTvArlNb1zvTg37I3FEG-44">
          <mxGeometry y="40" width="90" height="40" as="geometry" />
        </mxCell>
        <mxCell id="CTvArlNb1zvTg37I3FEG-47" value="" style="shape=note;whiteSpace=wrap;html=1;backgroundOutline=1;darkOpacity=0.05;rounded=1;size=20;strokeWidth=2;" vertex="1" parent="CTvArlNb1zvTg37I3FEG-44">
          <mxGeometry x="10" y="5" width="80" height="100" as="geometry" />
        </mxCell>
        <mxCell id="CTvArlNb1zvTg37I3FEG-48" value="&lt;font data-font-src=&quot;https://fonts.googleapis.com/css?family=Maven+Pro&quot; face=&quot;Maven Pro&quot; color=&quot;#ffffff&quot;&gt;&lt;b&gt;&lt;font style=&quot;font-size: 20px;&quot;&gt;Fastq&lt;/font&gt;&lt;/b&gt;&lt;/font&gt;" style="rounded=1;whiteSpace=wrap;html=1;strokeWidth=2;fillColor=#000000;" vertex="1" parent="CTvArlNb1zvTg37I3FEG-44">
          <mxGeometry x="5" y="45" width="90" height="40" as="geometry" />
        </mxCell>
        <mxCell id="CTvArlNb1zvTg37I3FEG-49" value="" style="shape=note;whiteSpace=wrap;html=1;backgroundOutline=1;darkOpacity=0.05;rounded=1;size=20;strokeWidth=2;" vertex="1" parent="CTvArlNb1zvTg37I3FEG-44">
          <mxGeometry x="15" y="10" width="80" height="100" as="geometry" />
        </mxCell>
        <mxCell id="CTvArlNb1zvTg37I3FEG-50" value="&lt;font face=&quot;Maven Pro&quot; color=&quot;#ffffff&quot;&gt;&lt;span style=&quot;font-size: 20px;&quot;&gt;&lt;b&gt;.TBI&lt;/b&gt;&lt;/span&gt;&lt;/font&gt;" style="rounded=1;whiteSpace=wrap;html=1;strokeWidth=2;fillColor=#000000;" vertex="1" parent="CTvArlNb1zvTg37I3FEG-44">
          <mxGeometry x="10" y="50" width="90" height="40" as="geometry" />
        </mxCell>
        <mxCell id="CTvArlNb1zvTg37I3FEG-51" value="" style="rounded=1;whiteSpace=wrap;html=1;strokeWidth=2;arcSize=50;" vertex="1" parent="1">
          <mxGeometry x="340" y="10" width="20" height="590" as="geometry" />
        </mxCell>
        <mxCell id="CTvArlNb1zvTg37I3FEG-53" value="" style="group" vertex="1" connectable="0" parent="1">
          <mxGeometry x="375" y="650" width="100" height="110" as="geometry" />
        </mxCell>
        <mxCell id="CTvArlNb1zvTg37I3FEG-54" value="" style="shape=note;whiteSpace=wrap;html=1;backgroundOutline=1;darkOpacity=0.05;rounded=1;size=20;strokeWidth=2;" vertex="1" parent="CTvArlNb1zvTg37I3FEG-53">
          <mxGeometry x="5" width="80" height="100" as="geometry" />
        </mxCell>
        <mxCell id="CTvArlNb1zvTg37I3FEG-55" value="&lt;font data-font-src=&quot;https://fonts.googleapis.com/css?family=Maven+Pro&quot; face=&quot;Maven Pro&quot; color=&quot;#ffffff&quot;&gt;&lt;b&gt;&lt;font style=&quot;font-size: 20px;&quot;&gt;Fastq&lt;/font&gt;&lt;/b&gt;&lt;/font&gt;" style="rounded=1;whiteSpace=wrap;html=1;strokeWidth=2;fillColor=#000000;" vertex="1" parent="CTvArlNb1zvTg37I3FEG-53">
          <mxGeometry y="40" width="90" height="40" as="geometry" />
        </mxCell>
        <mxCell id="CTvArlNb1zvTg37I3FEG-56" value="" style="shape=note;whiteSpace=wrap;html=1;backgroundOutline=1;darkOpacity=0.05;rounded=1;size=20;strokeWidth=2;" vertex="1" parent="CTvArlNb1zvTg37I3FEG-53">
          <mxGeometry x="10" y="5" width="80" height="100" as="geometry" />
        </mxCell>
        <mxCell id="CTvArlNb1zvTg37I3FEG-57" value="&lt;font data-font-src=&quot;https://fonts.googleapis.com/css?family=Maven+Pro&quot; face=&quot;Maven Pro&quot; color=&quot;#ffffff&quot;&gt;&lt;b&gt;&lt;font style=&quot;font-size: 20px;&quot;&gt;Fastq&lt;/font&gt;&lt;/b&gt;&lt;/font&gt;" style="rounded=1;whiteSpace=wrap;html=1;strokeWidth=2;fillColor=#000000;" vertex="1" parent="CTvArlNb1zvTg37I3FEG-53">
          <mxGeometry x="5" y="45" width="90" height="40" as="geometry" />
        </mxCell>
        <mxCell id="CTvArlNb1zvTg37I3FEG-58" value="" style="shape=note;whiteSpace=wrap;html=1;backgroundOutline=1;darkOpacity=0.05;rounded=1;size=20;strokeWidth=2;" vertex="1" parent="CTvArlNb1zvTg37I3FEG-53">
          <mxGeometry x="15" y="10" width="80" height="100" as="geometry" />
        </mxCell>
        <mxCell id="CTvArlNb1zvTg37I3FEG-59" value="&lt;font face=&quot;Maven Pro&quot; color=&quot;#ffffff&quot;&gt;&lt;span style=&quot;font-size: 20px;&quot;&gt;&lt;b&gt;Merged VCF&lt;/b&gt;&lt;/span&gt;&lt;/font&gt;" style="rounded=1;whiteSpace=wrap;html=1;strokeWidth=2;fillColor=#000000;" vertex="1" parent="CTvArlNb1zvTg37I3FEG-53">
          <mxGeometry x="10" y="50" width="90" height="40" as="geometry" />
        </mxCell>
        <mxCell id="CTvArlNb1zvTg37I3FEG-60" value="" style="endArrow=none;html=1;rounded=1;strokeWidth=3;exitX=0.5;exitY=1;exitDx=0;exitDy=0;exitPerimeter=0;" edge="1" parent="1">
          <mxGeometry width="50" height="50" relative="1" as="geometry">
            <mxPoint x="430" y="600" as="sourcePoint" />
            <mxPoint x="430" y="650" as="targetPoint" />
          </mxGeometry>
        </mxCell>
        <mxCell id="CTvArlNb1zvTg37I3FEG-61" value="" style="group" vertex="1" connectable="0" parent="1">
          <mxGeometry x="375" y="810" width="100" height="110" as="geometry" />
        </mxCell>
        <mxCell id="CTvArlNb1zvTg37I3FEG-62" value="" style="shape=note;whiteSpace=wrap;html=1;backgroundOutline=1;darkOpacity=0.05;rounded=1;size=20;strokeWidth=2;" vertex="1" parent="CTvArlNb1zvTg37I3FEG-61">
          <mxGeometry x="5" width="80" height="100" as="geometry" />
        </mxCell>
        <mxCell id="CTvArlNb1zvTg37I3FEG-63" value="&lt;font data-font-src=&quot;https://fonts.googleapis.com/css?family=Maven+Pro&quot; face=&quot;Maven Pro&quot; color=&quot;#ffffff&quot;&gt;&lt;b&gt;&lt;font style=&quot;font-size: 20px;&quot;&gt;Fastq&lt;/font&gt;&lt;/b&gt;&lt;/font&gt;" style="rounded=1;whiteSpace=wrap;html=1;strokeWidth=2;fillColor=#000000;" vertex="1" parent="CTvArlNb1zvTg37I3FEG-61">
          <mxGeometry y="40" width="90" height="40" as="geometry" />
        </mxCell>
        <mxCell id="CTvArlNb1zvTg37I3FEG-64" value="" style="shape=note;whiteSpace=wrap;html=1;backgroundOutline=1;darkOpacity=0.05;rounded=1;size=20;strokeWidth=2;" vertex="1" parent="CTvArlNb1zvTg37I3FEG-61">
          <mxGeometry x="10" y="5" width="80" height="100" as="geometry" />
        </mxCell>
        <mxCell id="CTvArlNb1zvTg37I3FEG-65" value="&lt;font data-font-src=&quot;https://fonts.googleapis.com/css?family=Maven+Pro&quot; face=&quot;Maven Pro&quot; color=&quot;#ffffff&quot;&gt;&lt;b&gt;&lt;font style=&quot;font-size: 20px;&quot;&gt;Fastq&lt;/font&gt;&lt;/b&gt;&lt;/font&gt;" style="rounded=1;whiteSpace=wrap;html=1;strokeWidth=2;fillColor=#000000;" vertex="1" parent="CTvArlNb1zvTg37I3FEG-61">
          <mxGeometry x="5" y="45" width="90" height="40" as="geometry" />
        </mxCell>
        <mxCell id="CTvArlNb1zvTg37I3FEG-66" value="" style="shape=note;whiteSpace=wrap;html=1;backgroundOutline=1;darkOpacity=0.05;rounded=1;size=20;strokeWidth=2;" vertex="1" parent="CTvArlNb1zvTg37I3FEG-61">
          <mxGeometry x="15" y="10" width="80" height="100" as="geometry" />
        </mxCell>
        <mxCell id="CTvArlNb1zvTg37I3FEG-67" value="&lt;font face=&quot;Maven Pro&quot; color=&quot;#ffffff&quot;&gt;&lt;span style=&quot;font-size: 20px;&quot;&gt;&lt;b&gt;BED/BIM/ FAM&lt;/b&gt;&lt;/span&gt;&lt;/font&gt;" style="rounded=1;whiteSpace=wrap;html=1;strokeWidth=2;fillColor=#000000;" vertex="1" parent="CTvArlNb1zvTg37I3FEG-61">
          <mxGeometry x="10" y="50" width="90" height="40" as="geometry" />
        </mxCell>
        <mxCell id="CTvArlNb1zvTg37I3FEG-68" value="" style="endArrow=none;html=1;rounded=1;strokeWidth=3;exitX=0.5;exitY=1;exitDx=0;exitDy=0;exitPerimeter=0;" edge="1" parent="1">
          <mxGeometry width="50" height="50" relative="1" as="geometry">
            <mxPoint x="430" y="760" as="sourcePoint" />
            <mxPoint x="430" y="810" as="targetPoint" />
          </mxGeometry>
        </mxCell>
        <mxCell id="CTvArlNb1zvTg37I3FEG-70" value="" style="group" vertex="1" connectable="0" parent="1">
          <mxGeometry x="375" y="1151" width="100" height="110" as="geometry" />
        </mxCell>
        <mxCell id="CTvArlNb1zvTg37I3FEG-71" value="" style="shape=note;whiteSpace=wrap;html=1;backgroundOutline=1;darkOpacity=0.05;rounded=1;size=20;strokeWidth=2;" vertex="1" parent="CTvArlNb1zvTg37I3FEG-70">
          <mxGeometry x="5" width="80" height="100" as="geometry" />
        </mxCell>
        <mxCell id="CTvArlNb1zvTg37I3FEG-72" value="&lt;font data-font-src=&quot;https://fonts.googleapis.com/css?family=Maven+Pro&quot; face=&quot;Maven Pro&quot; color=&quot;#ffffff&quot;&gt;&lt;b&gt;&lt;font style=&quot;font-size: 20px;&quot;&gt;Fastq&lt;/font&gt;&lt;/b&gt;&lt;/font&gt;" style="rounded=1;whiteSpace=wrap;html=1;strokeWidth=2;fillColor=#000000;" vertex="1" parent="CTvArlNb1zvTg37I3FEG-70">
          <mxGeometry y="40" width="90" height="40" as="geometry" />
        </mxCell>
        <mxCell id="CTvArlNb1zvTg37I3FEG-73" value="" style="shape=note;whiteSpace=wrap;html=1;backgroundOutline=1;darkOpacity=0.05;rounded=1;size=20;strokeWidth=2;" vertex="1" parent="CTvArlNb1zvTg37I3FEG-70">
          <mxGeometry x="10" y="5" width="80" height="100" as="geometry" />
        </mxCell>
        <mxCell id="CTvArlNb1zvTg37I3FEG-74" value="&lt;font data-font-src=&quot;https://fonts.googleapis.com/css?family=Maven+Pro&quot; face=&quot;Maven Pro&quot; color=&quot;#ffffff&quot;&gt;&lt;b&gt;&lt;font style=&quot;font-size: 20px;&quot;&gt;Fastq&lt;/font&gt;&lt;/b&gt;&lt;/font&gt;" style="rounded=1;whiteSpace=wrap;html=1;strokeWidth=2;fillColor=#000000;" vertex="1" parent="CTvArlNb1zvTg37I3FEG-70">
          <mxGeometry x="5" y="45" width="90" height="40" as="geometry" />
        </mxCell>
        <mxCell id="CTvArlNb1zvTg37I3FEG-75" value="" style="shape=note;whiteSpace=wrap;html=1;backgroundOutline=1;darkOpacity=0.05;rounded=1;size=20;strokeWidth=2;" vertex="1" parent="CTvArlNb1zvTg37I3FEG-70">
          <mxGeometry x="15" y="10" width="80" height="100" as="geometry" />
        </mxCell>
        <mxCell id="CTvArlNb1zvTg37I3FEG-76" value="&lt;font face=&quot;Maven Pro&quot; color=&quot;#ffffff&quot;&gt;&lt;span style=&quot;font-size: 20px;&quot;&gt;&lt;b&gt;BED/BIM/ FAM&lt;/b&gt;&lt;/span&gt;&lt;/font&gt;" style="rounded=1;whiteSpace=wrap;html=1;strokeWidth=2;fillColor=#000000;" vertex="1" parent="CTvArlNb1zvTg37I3FEG-70">
          <mxGeometry x="10" y="50" width="90" height="40" as="geometry" />
        </mxCell>
        <mxCell id="CTvArlNb1zvTg37I3FEG-77" value="" style="endArrow=none;html=1;rounded=1;strokeWidth=3;exitX=0.5;exitY=1;exitDx=0;exitDy=0;exitPerimeter=0;" edge="1" parent="1">
          <mxGeometry width="50" height="50" relative="1" as="geometry">
            <mxPoint x="435" y="921" as="sourcePoint" />
            <mxPoint x="435" y="1151" as="targetPoint" />
          </mxGeometry>
        </mxCell>
        <mxCell id="CTvArlNb1zvTg37I3FEG-79" value="&lt;h1 style=&quot;margin-top: 0px;&quot;&gt;Kontrola jakości&lt;/h1&gt;" style="text;html=1;whiteSpace=wrap;overflow=hidden;rounded=0;rotation=90;" vertex="1" parent="1">
          <mxGeometry x="400" y="1025" width="215" height="40" as="geometry" />
        </mxCell>
        <mxCell id="CTvArlNb1zvTg37I3FEG-81" value="" style="rounded=1;whiteSpace=wrap;html=1;strokeWidth=2;arcSize=50;" vertex="1" parent="1">
          <mxGeometry x="460" y="930" width="20" height="210" as="geometry" />
        </mxCell>
        <mxCell id="CTvArlNb1zvTg37I3FEG-82" value="&lt;h1 style=&quot;margin-top: 0px;&quot;&gt;Wstępnie procesowanie&lt;/h1&gt;" style="text;html=1;whiteSpace=wrap;overflow=hidden;rounded=0;rotation=-90;" vertex="1" parent="1">
          <mxGeometry x="160" y="285" width="290" height="40" as="geometry" />
        </mxCell>
      </root>
    </mxGraphModel>
  </diagram>
</mxfile>
